<?xml version="1.0" standalone="no"?>
<!DOCTYPE svg PUBLIC "-//W3C//DTD SVG 20010904//EN"
 "http://www.w3.org/TR/2001/REC-SVG-20010904/DTD/svg10.dtd">
<svg version="1.0" xmlns="http://www.w3.org/2000/svg"
 width="900.000000pt" height="900.000000pt" viewBox="0 0 900.000000 900.000000"
 preserveAspectRatio="xMidYMid meet">
<metadata>
Created by potrace 1.10, written by Peter Selinger 2001-2011
</metadata>
<g transform="translate(0.000000,900.000000) scale(0.100000,-0.100000)"
fill="#0062ff" stroke="none">
<path d="M6060 7239 c-179 -3 -337 -9 -352 -14 -54 -15 -156 -133 -199 -229
-5 -12 -18 -34 -28 -51 -20 -31 -44 -72 -77 -135 -11 -19 -22 -37 -26 -40 -4
-3 -12 -17 -18 -30 -5 -14 -19 -38 -30 -55 -11 -16 -24 -39 -30 -50 -6 -11
-19 -33 -30 -50 -11 -16 -23 -37 -26 -45 -3 -8 -8 -19 -10 -25 -2 -5 -13 -23
-24 -40 -11 -16 -24 -39 -30 -50 -6 -11 -19 -33 -29 -50 -20 -31 -44 -72 -77
-135 -11 -19 -22 -37 -26 -40 -4 -3 -12 -17 -18 -30 -5 -14 -19 -38 -30 -55
-10 -16 -29 -50 -42 -75 -13 -25 -29 -49 -35 -53 -7 -4 -13 -15 -13 -23 0 -9
-11 -30 -24 -47 -14 -18 -30 -43 -36 -57 -16 -36 -36 -70 -49 -83 -6 -6 -11
-19 -11 -29 0 -10 -4 -18 -8 -18 -5 0 -21 -24 -36 -52 -15 -29 -36 -66 -46
-83 -20 -32 -45 -77 -76 -135 -11 -19 -22 -37 -26 -40 -4 -3 -12 -17 -18 -30
-5 -14 -19 -38 -30 -55 -11 -16 -24 -40 -29 -52 -5 -11 -15 -24 -20 -28 -6 -3
-11 -14 -11 -25 0 -10 -7 -20 -15 -24 -8 -3 -15 -14 -15 -24 0 -11 -7 -25 -15
-32 -8 -7 -15 -16 -15 -21 0 -5 -12 -28 -27 -52 -50 -77 -53 -82 -67 -117 -3
-8 -15 -28 -26 -45 -11 -16 -24 -39 -30 -50 -6 -11 -19 -33 -30 -50 -11 -16
-22 -34 -24 -40 -2 -5 -7 -17 -10 -25 -3 -8 -15 -28 -26 -45 -10 -16 -29 -50
-42 -75 -13 -25 -26 -47 -30 -50 -4 -3 -12 -17 -18 -30 -5 -14 -19 -38 -30
-55 -10 -16 -29 -50 -42 -75 -13 -25 -29 -49 -35 -53 -7 -4 -13 -14 -13 -21 0
-35 -101 -96 -160 -96 -62 0 -146 53 -173 110 -4 8 -23 42 -42 75 -19 33 -39
71 -45 85 -6 13 -14 27 -18 30 -4 3 -13 16 -19 30 -7 14 -26 48 -42 75 -17 28
-36 61 -41 75 -6 13 -14 27 -18 30 -4 3 -17 25 -30 50 -13 25 -32 59 -42 75
-11 17 -25 41 -30 55 -6 13 -14 27 -18 30 -4 3 -17 25 -30 50 -13 25 -32 59
-42 75 -10 17 -31 53 -45 80 -14 28 -34 64 -45 80 -36 56 -49 80 -61 108 -6
15 -15 27 -20 27 -5 0 -9 8 -9 19 0 10 -7 24 -15 31 -8 7 -15 18 -15 25 0 6
-13 31 -30 53 -17 23 -30 46 -30 51 0 5 -6 16 -12 23 -7 7 -24 33 -36 58 -13
25 -39 72 -58 105 -18 33 -38 69 -44 80 -13 26 -62 111 -89 155 -11 19 -26 46
-32 60 -5 13 -13 27 -17 30 -7 5 -24 35 -64 110 -27 51 -97 119 -147 141 -40
18 -69 19 -402 19 l-359 0 0 -24 c0 -13 7 -29 15 -36 8 -7 15 -18 15 -26 0 -7
6 -19 12 -26 15 -16 34 -45 48 -73 6 -11 19 -33 29 -50 11 -16 30 -50 42 -75
13 -25 36 -64 51 -86 15 -23 28 -46 28 -52 0 -5 6 -14 13 -20 7 -6 30 -44 51
-84 20 -40 46 -86 56 -103 10 -16 27 -46 37 -65 31 -57 63 -113 83 -145 10
-16 30 -50 43 -75 14 -25 34 -61 46 -80 11 -19 26 -47 32 -62 6 -16 15 -28 20
-28 5 0 9 -5 9 -11 0 -9 51 -102 100 -179 5 -8 21 -37 35 -65 14 -27 34 -63
45 -80 11 -16 24 -39 30 -50 6 -11 26 -47 45 -80 19 -33 39 -69 45 -80 6 -11
19 -33 30 -50 10 -16 31 -52 45 -80 14 -27 34 -63 45 -80 10 -16 30 -52 45
-80 14 -27 39 -72 55 -100 17 -27 37 -63 45 -80 9 -16 24 -43 35 -60 11 -16
24 -39 30 -50 6 -11 19 -33 30 -50 10 -16 31 -55 46 -85 15 -30 30 -57 34 -60
3 -3 10 -12 14 -20 4 -8 22 -42 41 -75 19 -33 39 -70 44 -82 5 -11 15 -24 20
-28 6 -3 11 -13 11 -20 0 -17 83 -141 113 -169 11 -11 36 -28 56 -38 32 -16
70 -18 449 -18 l414 0 51 34 c49 32 118 121 147 187 6 13 19 38 30 54 11 17
22 36 25 43 3 6 7 18 10 25 3 6 14 26 25 42 11 17 24 40 29 52 5 11 15 24 20
28 6 3 11 15 11 26 0 10 4 19 9 19 5 0 14 12 20 28 6 15 20 41 31 57 11 17 24
39 30 50 6 11 26 47 45 80 19 33 38 67 42 75 4 8 26 47 50 86 24 39 43 74 43
77 0 4 12 23 26 44 14 21 30 47 35 58 5 11 18 34 29 50 11 17 31 53 45 80 14
28 31 59 38 70 46 75 64 105 85 144 13 24 33 58 43 75 10 17 23 41 28 53 5 11
15 24 20 28 6 3 11 13 11 21 0 9 11 30 24 47 14 18 30 43 35 57 6 14 20 39 31
55 11 17 24 39 30 50 5 11 26 47 45 80 19 33 39 69 45 80 6 11 19 34 30 50 11
17 31 53 45 80 14 28 35 64 45 80 11 17 26 44 34 60 8 17 29 53 45 80 17 28
35 59 41 70 5 11 16 29 22 40 7 10 24 37 38 60 13 22 30 49 37 60 12 19 16 28
28 58 3 6 14 26 25 42 11 17 23 37 27 45 3 8 18 33 32 55 33 52 68 112 87 150
8 17 23 44 34 60 11 17 24 39 30 50 5 11 26 47 45 80 19 33 39 69 45 80 6 11
24 43 41 70 16 28 37 64 45 80 8 17 23 44 34 60 19 31 43 73 76 135 11 19 22
37 26 40 4 3 12 17 17 30 14 31 28 55 64 101 39 53 32 113 -12 107 -9 -1 -162
-5 -341 -9z m172 -111 c14 -23 8 -72 -16 -118 -55 -107 -91 -167 -116 -195
-15 -16 -31 -47 -34 -67 -4 -21 -13 -41 -21 -45 -7 -5 -40 -61 -74 -125 -33
-65 -72 -135 -86 -155 -14 -21 -25 -42 -25 -47 0 -5 -9 -19 -19 -30 -19 -21
-39 -53 -94 -156 -16 -30 -45 -79 -63 -108 -19 -29 -34 -55 -34 -59 0 -7 -51
-85 -61 -93 -3 -3 -16 -26 -27 -52 -11 -27 -25 -48 -31 -48 -5 0 -13 -10 -17
-22 -3 -12 -20 -43 -35 -69 -16 -25 -29 -52 -29 -59 0 -6 -10 -26 -22 -43 -23
-31 -27 -39 -92 -162 -21 -38 -43 -77 -50 -85 -7 -8 -27 -44 -45 -80 -19 -36
-44 -79 -57 -97 -13 -17 -28 -42 -34 -55 -5 -13 -28 -52 -49 -88 -60 -99 -100
-168 -143 -250 -22 -41 -46 -82 -54 -91 -8 -8 -14 -21 -14 -28 0 -7 -12 -28
-26 -46 -14 -19 -41 -65 -60 -102 -18 -37 -51 -95 -72 -128 -21 -33 -44 -74
-51 -92 -7 -17 -21 -39 -32 -49 -10 -9 -19 -23 -19 -29 0 -7 -16 -33 -35 -58
-19 -25 -35 -50 -35 -56 0 -16 -99 -200 -135 -251 -17 -25 -39 -64 -48 -87 -9
-23 -31 -61 -49 -85 -89 -117 -90 -117 -148 -128 -30 -6 -65 -16 -77 -22 -11
-6 -26 -7 -32 -4 -6 4 -133 7 -283 7 -336 0 -354 3 -427 77 -31 31 -66 76 -79
101 -14 25 -30 53 -37 61 -7 8 -16 26 -20 40 -4 14 -31 63 -60 110 -29 47 -68
114 -86 149 -50 95 -62 114 -89 152 -14 19 -35 55 -47 81 -12 26 -42 81 -67
123 -26 41 -53 94 -62 117 -9 24 -22 48 -29 53 -6 6 -35 55 -64 110 -29 55
-61 109 -71 120 -10 11 -36 59 -59 106 -23 48 -48 93 -57 100 -9 7 -31 42 -50
78 -19 36 -54 100 -79 141 -24 41 -55 98 -68 126 -14 28 -30 55 -36 58 -6 4
-26 34 -44 67 -64 120 -75 139 -106 185 -17 26 -31 53 -31 59 0 7 -7 18 -15
25 -8 7 -15 20 -15 30 0 9 -9 25 -20 35 -11 10 -20 22 -20 26 0 5 -14 32 -31
61 -29 48 -71 124 -106 188 -15 29 -17 69 -3 90 8 12 34 15 142 13 73 -1 140
-1 148 -1 138 5 188 -5 248 -50 37 -28 116 -128 127 -161 3 -11 10 -21 15 -21
4 0 25 -33 45 -72 20 -40 40 -77 44 -83 5 -5 11 -22 15 -37 3 -15 20 -43 36
-62 17 -18 30 -37 30 -40 0 -9 85 -160 130 -231 21 -33 42 -73 46 -90 4 -16
13 -37 21 -45 18 -19 49 -69 83 -135 14 -27 38 -69 53 -92 15 -24 27 -46 27
-49 0 -4 11 -22 24 -39 14 -18 28 -45 32 -61 4 -16 22 -45 41 -64 18 -19 33
-40 33 -47 0 -8 12 -32 26 -54 14 -23 41 -75 60 -115 19 -41 38 -74 43 -74 5
0 14 -12 21 -27 6 -16 27 -55 45 -88 19 -33 39 -69 44 -80 5 -12 16 -27 25
-34 9 -7 16 -23 16 -34 0 -12 30 -49 73 -91 161 -157 292 -154 445 9 40 42 72
86 72 96 0 11 7 22 15 25 8 4 15 14 15 24 0 10 7 23 15 30 8 6 17 22 21 33 3
12 16 36 29 52 12 17 30 51 40 78 10 26 22 47 27 47 5 0 16 17 24 38 9 20 27
51 40 69 13 17 24 37 24 42 0 6 14 30 30 53 17 22 30 47 30 54 0 7 11 25 24
41 13 15 27 38 31 51 3 13 16 38 27 55 37 60 91 152 106 182 8 17 21 37 29 46
14 17 38 58 93 166 17 34 38 67 46 74 8 6 14 18 14 27 0 8 6 23 14 31 14 16
31 46 89 151 16 30 38 66 48 79 11 13 19 29 19 35 0 6 11 24 25 40 14 16 25
36 25 43 0 8 15 38 34 66 19 29 41 68 50 87 9 19 32 60 51 90 19 30 44 73 56
95 12 22 28 44 35 48 8 4 14 14 14 22 0 18 49 109 106 197 24 37 49 79 55 94
5 15 25 48 43 73 18 25 42 64 53 86 11 22 37 69 57 105 21 36 44 80 52 98 8
17 18 32 22 32 4 0 21 12 38 28 67 61 83 67 194 72 166 9 342 2 352 -12z"/>
<path d="M6033 5888 c-26 -41 -35 -57 -47 -88 -3 -8 -10 -23 -16 -32 -5 -10
-15 -26 -20 -35 -6 -10 -12 -24 -15 -30 -13 -33 -16 -40 -35 -68 -11 -16 -24
-39 -29 -50 -5 -11 -21 -37 -35 -58 -14 -21 -26 -44 -26 -50 0 -7 -5 -18 -10
-23 -11 -11 -50 -77 -76 -129 -8 -16 -23 -43 -34 -60 -11 -16 -24 -40 -29 -52
-5 -11 -15 -24 -20 -28 -14 -8 -14 -88 0 -102 12 -12 33 -46 48 -80 5 -11 15
-24 20 -28 6 -3 11 -12 11 -20 0 -8 12 -31 26 -52 14 -21 30 -47 35 -58 9 -20
15 -32 37 -70 7 -11 17 -31 23 -45 5 -13 13 -27 17 -30 4 -3 13 -16 19 -30 7
-14 26 -47 42 -75 16 -27 41 -72 56 -100 14 -27 29 -57 34 -65 5 -8 12 -22 15
-30 4 -8 15 -28 26 -45 11 -16 23 -37 27 -45 4 -8 22 -36 40 -62 34 -49 43
-88 21 -88 -7 0 -246 0 -530 0 l-517 0 -41 -47 c-42 -50 -49 -60 -90 -140 -14
-26 -28 -50 -32 -53 -4 -3 -12 -17 -18 -30 -6 -14 -25 -50 -43 -82 -18 -31
-43 -76 -56 -100 -13 -23 -36 -62 -52 -86 -16 -24 -29 -47 -29 -52 0 -5 -7
-13 -15 -18 -9 -4 -18 -24 -21 -44 -5 -29 -3 -36 12 -39 11 -2 420 -2 909 1
804 5 892 4 914 -10 22 -14 69 -85 87 -130 3 -8 8 -19 10 -25 2 -5 13 -23 24
-40 11 -16 26 -43 34 -60 8 -16 29 -52 45 -80 17 -27 33 -57 37 -65 3 -8 10
-22 15 -30 5 -8 14 -26 20 -40 5 -13 13 -27 17 -30 4 -3 17 -25 30 -50 39 -76
76 -137 97 -160 44 -48 66 -51 450 -54 198 -2 368 1 378 6 21 11 23 61 2 78
-8 7 -15 21 -15 31 0 10 -5 21 -11 24 -5 4 -15 17 -20 28 -5 12 -18 36 -29 52
-10 17 -30 53 -45 80 -14 28 -29 57 -34 65 -5 8 -12 22 -15 30 -4 8 -15 29
-26 45 -10 17 -31 53 -45 80 -14 28 -42 77 -61 110 -18 33 -39 72 -45 88 -6
15 -15 27 -20 27 -5 0 -9 9 -9 19 0 11 -4 22 -9 25 -5 3 -28 43 -51 88 -23 46
-50 97 -61 113 -10 17 -21 37 -25 45 -3 8 -10 22 -15 30 -5 8 -14 26 -20 40
-5 13 -13 27 -17 30 -4 3 -17 25 -30 50 -13 25 -38 72 -57 105 -18 33 -45 83
-60 110 -14 28 -41 77 -60 110 -18 33 -45 83 -60 110 -14 28 -30 57 -35 65 -5
8 -11 22 -14 30 -4 8 -15 29 -26 45 -10 17 -30 53 -44 80 -14 28 -41 77 -60
110 -19 33 -46 83 -61 110 -14 28 -30 58 -35 68 -6 9 -14 25 -20 35 -5 9 -21
40 -35 67 -15 28 -35 64 -45 80 -11 17 -22 37 -26 45 -3 8 -10 22 -15 30 -5 8
-14 27 -20 43 -6 15 -15 27 -20 27 -5 0 -9 9 -9 19 0 11 -5 23 -10 26 -6 4
-17 21 -25 38 -8 18 -28 55 -44 82 -16 28 -42 73 -56 100 -14 28 -41 77 -60
110 -18 33 -45 83 -60 110 -14 28 -30 59 -37 70 -25 44 -28 51 -37 72 -6 11
-15 24 -20 28 -6 3 -11 16 -11 28 -1 45 -57 85 -77 55z m90 -291 c21 -30 37
-58 37 -63 0 -6 13 -31 29 -56 16 -25 32 -56 36 -69 4 -13 23 -47 41 -76 19
-28 34 -57 34 -65 0 -7 11 -30 25 -50 14 -20 25 -40 25 -43 0 -4 10 -21 23
-38 13 -18 32 -52 42 -77 10 -25 24 -52 31 -60 7 -8 37 -63 66 -121 30 -58 64
-118 76 -134 12 -15 22 -34 22 -42 0 -8 8 -27 19 -41 26 -37 77 -142 84 -173
4 -15 16 -29 27 -32 11 -3 20 -13 20 -24 0 -10 10 -34 22 -53 12 -19 45 -81
74 -137 29 -57 62 -116 73 -132 11 -16 30 -50 41 -75 11 -26 27 -54 35 -62 8
-9 15 -21 15 -28 0 -7 14 -30 30 -51 17 -21 30 -42 30 -47 0 -13 57 -126 105
-208 20 -36 47 -87 60 -115 12 -27 34 -68 48 -89 15 -21 27 -45 27 -53 0 -9
13 -32 28 -52 16 -20 36 -55 45 -78 9 -24 26 -52 37 -63 11 -11 20 -28 20 -38
0 -11 9 -27 19 -36 11 -10 22 -30 26 -44 3 -15 19 -47 34 -72 16 -25 41 -69
57 -99 l28 -53 -23 -19 c-19 -15 -40 -19 -110 -20 -47 0 -133 -2 -191 -5 -162
-8 -222 1 -260 39 -38 39 -107 144 -150 229 -18 35 -42 77 -54 93 -12 17 -46
77 -76 135 -73 144 -129 212 -208 251 l-63 31 -728 -5 c-401 -2 -734 -7 -739
-11 -6 -4 -34 1 -62 10 -62 20 -74 50 -41 94 11 16 21 32 21 35 0 4 15 30 34
58 18 29 36 64 40 79 9 37 88 151 115 164 12 6 33 21 46 34 18 17 30 21 52 16
15 -4 35 -7 43 -6 8 0 49 3 90 7 41 3 201 6 355 7 328 1 405 11 461 60 50 43
58 93 28 164 -13 28 -21 52 -18 52 2 0 -2 14 -11 30 -9 17 -19 30 -24 30 -5 0
-16 20 -25 45 -8 25 -24 57 -35 72 -12 14 -21 34 -21 43 0 10 -7 23 -15 30 -8
7 -15 19 -15 26 0 8 -4 14 -9 14 -4 0 -25 33 -45 73 -36 71 -56 107 -101 177
-13 19 -37 62 -55 95 -17 33 -38 67 -45 75 -18 21 -18 121 1 166 9 22 27 53
40 71 13 17 24 35 24 40 0 9 89 162 107 185 6 7 23 37 38 66 47 91 85 96 138
19z"/>
<path d="M3590 3129 c-105 -6 -134 -14 -171 -44 -24 -20 -59 -66 -72 -95 -4
-8 -16 -28 -27 -45 -11 -16 -24 -39 -30 -50 -6 -11 -24 -42 -41 -70 -17 -27
-35 -62 -42 -77 -6 -16 -15 -28 -19 -28 -4 0 -19 -24 -33 -52 -15 -29 -35 -66
-45 -83 -11 -16 -24 -39 -30 -50 -6 -11 -19 -33 -30 -50 -11 -16 -24 -39 -29
-50 -5 -11 -21 -37 -35 -58 -14 -21 -26 -44 -26 -51 0 -8 -6 -16 -14 -19 -8
-3 -17 -24 -21 -47 -8 -46 12 -80 47 -80 10 0 18 -4 18 -8 0 -4 26 -20 58 -35
59 -29 73 -36 107 -55 11 -7 26 -14 33 -17 32 -13 39 -16 67 -35 17 -10 54
-31 82 -45 29 -15 55 -30 58 -36 4 -5 25 -9 49 -9 50 0 75 22 112 100 4 8 19
33 33 55 33 52 68 112 87 150 8 17 23 44 34 60 11 17 24 39 30 50 5 11 26 47
45 80 19 33 39 69 45 80 23 47 87 130 107 140 11 6 27 16 36 23 30 25 182 33
672 32 275 0 530 3 566 8 101 12 182 79 238 197 5 11 21 37 35 58 14 21 26 42
26 46 0 5 7 14 15 21 21 18 20 76 -2 85 -22 8 -1803 12 -1933 4z m1642 -89
c69 -1 113 -6 124 -15 17 -12 17 -15 0 -58 -22 -59 -93 -127 -154 -148 -52
-17 -51 -17 -732 -23 -446 -3 -456 -4 -547 -51 -47 -24 -159 -149 -187 -209
-14 -29 -32 -59 -41 -66 -8 -7 -15 -17 -15 -22 0 -5 -16 -34 -35 -64 -19 -30
-35 -59 -35 -65 0 -13 -60 -112 -108 -181 -26 -37 -43 -50 -74 -59 -37 -9 -48
-8 -105 16 -34 15 -63 31 -63 35 0 4 -12 11 -27 15 -15 3 -38 14 -52 24 -14
10 -39 23 -56 30 -28 11 -75 68 -75 91 0 25 139 272 161 285 5 4 9 13 9 20 0
18 89 167 106 178 7 4 16 22 19 40 4 17 13 39 21 47 7 9 26 35 42 58 17 26 56
61 96 87 l68 43 776 -3 c428 -2 825 -5 884 -5z"/>
<path d="M4466 2483 c-119 -3 -164 -7 -179 -18 -12 -8 -30 -15 -40 -15 -19 0
-80 -43 -123 -85 -26 -26 -84 -113 -84 -126 0 -6 -11 -25 -24 -42 -14 -18 -30
-43 -35 -57 -6 -14 -20 -38 -31 -55 -11 -16 -24 -39 -30 -50 -6 -11 -19 -33
-30 -50 -11 -16 -24 -39 -30 -50 -15 -29 -32 -56 -62 -96 -46 -61 -37 -83 52
-127 25 -13 52 -27 60 -31 8 -5 47 -24 85 -43 39 -18 72 -36 75 -40 3 -4 17
-12 30 -18 36 -16 70 -36 83 -49 26 -26 97 0 97 36 0 6 7 16 15 23 8 7 15 21
15 31 0 11 4 19 9 19 5 0 14 12 20 28 6 15 20 41 31 57 11 17 24 39 30 50 6
11 19 34 29 50 20 31 44 72 77 135 11 19 22 37 26 40 4 3 12 17 18 30 5 14 19
39 30 55 11 17 23 38 26 48 4 9 10 17 14 17 5 0 13 12 19 28 6 15 20 41 31 57
11 17 24 39 30 50 13 24 27 46 63 102 34 53 35 88 5 97 -13 3 -50 5 -83 4 -33
-2 -131 -4 -219 -5z m121 -99 c20 -22 23 -33 18 -60 -3 -19 -14 -42 -24 -52
-10 -9 -22 -27 -25 -40 -4 -12 -18 -35 -31 -51 -14 -16 -34 -48 -45 -72 -20
-45 -25 -52 -72 -126 -16 -23 -32 -52 -37 -65 -5 -13 -21 -38 -35 -57 -14 -19
-26 -39 -26 -44 0 -5 -21 -40 -46 -78 -51 -77 -75 -89 -122 -65 -17 9 -38 16
-47 16 -8 0 -15 4 -15 10 0 5 -25 22 -56 37 -30 15 -66 37 -80 49 -25 24 -32
58 -14 69 6 3 10 15 10 26 0 10 4 19 10 19 5 0 28 35 50 78 57 110 92 171 135
231 29 41 136 140 166 154 53 24 136 40 173 33 18 -4 44 -2 57 3 13 5 26 10
28 10 2 1 15 -11 28 -25z"/>
</g>
</svg>
